<?xml version="1.0" encoding="utf-8"?>
<!-- Generated by IcoMoon.io -->
<!DOCTYPE svg PUBLIC "-//W3C//DTD SVG 1.1//EN" "http://www.w3.org/Graphics/SVG/1.1/DTD/svg11.dtd">
<svg version="1.1" xmlns="http://www.w3.org/2000/svg" xmlns:xlink="http://www.w3.org/1999/xlink" width="23" height="32" viewBox="0 0 23 32">
<g id="icomoon-ignore">
</g>
<path d="M10.376 25.638l-0.136-0.144 0.144 0.136c0.134 0.126 0.158 0.153 0.136 0.153-0.005 0-0.070-0.065-0.144-0.144zM13.281 25.415c-0.234-0.135-0.593-0.342-0.798-0.46-0.316-0.181-0.431-0.267-0.357-0.267 0.009 0 0.293 0.162 0.631 0.359 0.831 0.485 0.966 0.561 0.979 0.549 0.006-0.006 0.185-0.312 0.397-0.68s0.451-0.778 0.529-0.912c0.079-0.134 0.286-0.493 0.46-0.798 0.303-0.529 0.321-0.554 0.408-0.552 0.080 0.002 0.083 0.005 0.022 0.022-0.070 0.020-0.105 0.077-0.913 1.479-0.193 0.334-0.379 0.657-0.414 0.718s-0.151 0.262-0.257 0.448c-0.106 0.186-0.209 0.339-0.228 0.339s-0.227-0.111-0.461-0.246zM5.004 24.48c-0.058-0.168-0.261-0.981-0.252-1.008 0.006-0.018 0.028 0.027 0.048 0.102 0.278 1.035 0.204 0.93 0.583 0.825 0.125-0.035 0.488-0.132 0.806-0.217s0.646-0.174 0.73-0.199c0.143-0.043 0.954-0.259 1.213-0.323 0.065-0.016 0.133-0.024 0.152-0.018s-0.028 0.027-0.103 0.045c-0.075 0.018-0.39 0.101-0.699 0.184s-0.843 0.227-1.186 0.319c-0.343 0.092-0.733 0.198-0.867 0.235-0.342 0.095-0.407 0.103-0.424 0.055zM8.784 24.066c-0.038-0.048-0.037-0.049 0.011-0.011 0.029 0.023 0.053 0.047 0.053 0.053 0 0.025-0.025 0.009-0.065-0.042zM4.654 23.169c-0.036-0.138-0.086-0.302-0.11-0.366-0.051-0.132-0.052-0.144-0.020-0.144 0.013 0 0.042 0.065 0.064 0.144s0.058 0.206 0.080 0.281c0.053 0.179 0.084 0.334 0.066 0.334-0.008 0-0.044-0.113-0.080-0.251zM2.65 22.591c0.004-0.089 0.006-0.091 0.017-0.017 0.010 0.066 0.032 0.084 0.109 0.094 0.093 0.012 0.093 0.012-0.017 0.017s-0.114 0.002-0.109-0.094zM18.708 22.668c0.063-0.007 0.114-0.025 0.114-0.041s0.011-0.029 0.025-0.029c0.014 0 0.025 0.021 0.025 0.046 0 0.035-0.033 0.044-0.139 0.041-0.133-0.005-0.134-0.006-0.025-0.017zM14.352 22.462c0.021-0.025 0.045-0.046 0.053-0.046s-0.002 0.021-0.023 0.046-0.045 0.046-0.053 0.046 0.002-0.021 0.023-0.046zM2.646 20.838v-1.548l-0.099-0.061c-0.054-0.033-0.181-0.106-0.281-0.162s-0.276-0.156-0.391-0.223c-0.115-0.067-0.648-0.376-1.186-0.686-0.757-0.437-0.979-0.579-0.987-0.63-0.006-0.039 0.081-0.221 0.217-0.454 0.125-0.214 0.325-0.56 0.445-0.769 0.242-0.42 0.237-0.413 0.262-0.388 0.010 0.010-0.143 0.296-0.339 0.636s-0.381 0.661-0.41 0.713c-0.029 0.052-0.072 0.124-0.094 0.16-0.028 0.045-0.031 0.079-0.010 0.111 0.025 0.038 1.383 0.836 2.577 1.513l0.327 0.186v1.575c0 0.866-0.007 1.575-0.015 1.575s-0.015-0.697-0.015-1.548zM14.991 21.837c0-0.008 0.096-0.11 0.213-0.226s0.213-0.204 0.213-0.196-0.096 0.11-0.213 0.226-0.213 0.204-0.213 0.196zM15.447 21.379c0-0.008 0.041-0.055 0.091-0.103s0.091-0.081 0.091-0.072-0.041 0.055-0.091 0.103-0.091 0.081-0.091 0.072zM15.692 21.116c0.001-0.013 0.053-0.063 0.114-0.112l0.112-0.090-0.105 0.112c-0.108 0.116-0.125 0.128-0.121 0.090zM4.196 19.475l-1.475-1.482 1.482 1.475c0.815 0.811 1.482 1.478 1.482 1.482 0 0.021-0.119-0.097-1.49-1.475zM15.994 20.82c0.042-0.050 0.079-0.097 0.084-0.104s0.014-0.006 0.023 0.002-0.029 0.055-0.084 0.104l-0.098 0.089 0.076-0.091zM18.829 20.829c0.013-0.038 0.145-0.094 0.145-0.061-0 0.012-0.035 0.038-0.078 0.058-0.053 0.025-0.074 0.026-0.067 0.003zM19.035 20.748c0.025-0.015 0.374-0.113 0.775-0.217s0.755-0.203 0.786-0.219c0.073-0.038 0.075-0.027-0.191-1.008-0.036-0.132-0.060-0.254-0.055-0.271 0.014-0.043 0.302 1.026 0.319 1.184l0.013 0.126-0.132 0.031c-0.322 0.076-0.537 0.131-0.664 0.17-0.18 0.055-0.69 0.19-0.806 0.213-0.060 0.012-0.076 0.009-0.046-0.009zM16.845 19.969c0.039-0.042 0.078-0.076 0.087-0.076s-0.017 0.034-0.056 0.076c-0.039 0.042-0.078 0.076-0.087 0.076s0.017-0.034 0.056-0.076zM20.284 18.859c-0.020-0.075-0.049-0.177-0.065-0.225-0.039-0.119-0.034-0.207 0.006-0.11 0.052 0.127 0.119 0.403 0.107 0.438-0.007 0.018-0.028-0.028-0.048-0.104zM20.102 18.182c-0.090-0.347-0.179-0.677-0.236-0.868-0.026-0.089-0.039-0.169-0.030-0.179 0.022-0.022 0.023-0.019 0.142 0.432 0.053 0.201 0.128 0.478 0.166 0.616s0.058 0.251 0.045 0.251c-0.013 0-0.053-0.113-0.088-0.251zM13.413 18.050c-0.219-0.059-0.495-0.23-0.624-0.388-0.058-0.071-0.154-0.231-0.213-0.355-0.088-0.184-0.11-0.272-0.122-0.47-0.008-0.134-0.008-0.209 0-0.167s0.028 0.158 0.046 0.258c0.126 0.724 0.784 1.221 1.473 1.114 0.409-0.064 0.801-0.332 0.966-0.661 0.163-0.325 0.189-0.455 0.189-0.925-0.001-0.69-0.101-0.958-0.688-1.84-1.003-1.507-1.014-1.527-1.062-1.909-0.039-0.313 0.014-0.519 0.171-0.656 0.141-0.124 0.33-0.132 0.451-0.019 0.109 0.101 0.202 0.327 0.198 0.482l-0.004 0.127-0.024-0.137c-0.036-0.202-0.107-0.348-0.213-0.437-0.113-0.095-0.193-0.1-0.324-0.020-0.174 0.106-0.207 0.191-0.207 0.532 0 0.277 0.009 0.323 0.094 0.503 0.051 0.109 0.313 0.526 0.58 0.928 0.838 1.257 0.909 1.385 1.015 1.824 0.067 0.28 0.081 0.883 0.025 1.146-0.084 0.397-0.374 0.803-0.689 0.963-0.298 0.152-0.713 0.195-1.038 0.108zM7.328 16.704v-1.305l-0.165-0.65c-0.091-0.357-0.234-0.917-0.318-1.243-0.43-1.663-0.605-2.382-0.59-2.42 0.013-0.034 0.107-0.043 0.455-0.043 0.426 0 0.439 0.002 0.467 0.068 0.016 0.038 0.092 0.404 0.168 0.813s0.164 0.882 0.196 1.049 0.093 0.496 0.137 0.73c0.105 0.556 0.119 0.651 0.082 0.593-0.016-0.025-0.052-0.176-0.080-0.334-0.146-0.814-0.535-2.836-0.55-2.86-0.019-0.030-0.813-0.040-0.843-0.010-0.010 0.010 0.001 0.082 0.024 0.16s0.13 0.491 0.239 0.917c0.557 2.188 0.66 2.592 0.732 2.858 0.077 0.288 0.077 0.291 0.078 1.604l0 1.315h0.851v-1.333c0-1.248 0.004-1.348 0.063-1.574 0.088-0.337 0.267-1.035 0.531-2.065 0.124-0.485 0.281-1.094 0.348-1.353s0.122-0.489 0.123-0.51c0-0.030-0.097-0.037-0.432-0.030l-0.432 0.008-0.069 0.38c-0.038 0.209-0.090 0.496-0.115 0.639s-0.12 0.669-0.211 1.171-0.171 0.946-0.179 0.988c-0.011 0.059-0.014 0.052-0.018-0.030-0.002-0.059 0.016-0.21 0.040-0.338s0.072-0.387 0.105-0.578c0.132-0.751 0.399-2.203 0.412-2.239 0.010-0.028 0.133-0.038 0.471-0.038h0.457v0.078c0 0.043-0.062 0.32-0.139 0.616s-0.207 0.805-0.291 1.131-0.257 0.997-0.386 1.49l-0.233 0.897-0.031 2.737-0.897 0.017v-1.305zM9.010 17.957c-0.011-0.028 0.011-0.25 0.049-0.494s0.094-0.615 0.125-0.824c0.11-0.739 0.331-2.17 0.517-3.345 0.049-0.309 0.118-0.754 0.153-0.988s0.084-0.54 0.107-0.681c0.024-0.14 0.043-0.291 0.043-0.334s0.015-0.1 0.033-0.125c0.038-0.054 0.027 0.048-0.080 0.73-0.041 0.259-0.088 0.567-0.105 0.684-0.066 0.452-0.153 1.011-0.182 1.171-0.017 0.092-0.072 0.441-0.122 0.775-0.085 0.569-0.187 1.233-0.337 2.204-0.116 0.753-0.179 1.17-0.18 1.194-0 0.013 0.187 0.020 0.417 0.015l0.418-0.008 0.034-0.274c0.019-0.151 0.050-0.438 0.070-0.639s0.043-0.43 0.052-0.509l0.017-0.144h0.925l0.067 0.585c0.037 0.322 0.075 0.678 0.086 0.791l0.019 0.205h0.905l-0.017-0.129c-0.010-0.071-0.025-0.163-0.034-0.205s-0.028-0.165-0.042-0.274c-0.014-0.109-0.047-0.328-0.073-0.486s-0.089-0.556-0.138-0.882c-0.049-0.326-0.125-0.819-0.168-1.095s-0.104-0.673-0.135-0.882-0.092-0.606-0.136-0.882c-0.141-0.892-0.23-1.472-0.247-1.596-0.009-0.067-0.030-0.193-0.047-0.28l-0.031-0.159-0.863-0.019 0.445-0.007c0.376-0.006 0.448 0.001 0.463 0.040 0.010 0.026 0.054 0.289 0.098 0.585s0.091 0.607 0.104 0.691c0.12 0.749 0.365 2.329 0.457 2.949 0.035 0.237 0.318 2.060 0.366 2.36 0.056 0.349 0.078 0.334-0.466 0.324l-0.464-0.008-0.038-0.319c-0.021-0.176-0.062-0.531-0.092-0.791l-0.053-0.471-0.408-0.009c-0.224-0.005-0.419 0.002-0.432 0.015s-0.059 0.359-0.102 0.769-0.084 0.762-0.092 0.783c-0.010 0.028-0.127 0.038-0.441 0.038-0.369 0-0.43-0.007-0.447-0.050zM13.606 17.039c-0.186-0.113-0.257-0.335-0.257-0.801 0-0.396 0.043-0.3 0.062 0.139 0.018 0.425 0.065 0.546 0.244 0.634 0.321 0.158 0.591-0.24 0.511-0.752-0.056-0.356-0.137-0.519-0.509-1.029-0.741-1.014-1.052-1.525-1.154-1.895-0.086-0.31-0.112-0.873-0.056-1.186 0.052-0.288 0.194-0.606 0.346-0.774 0.223-0.247 0.626-0.422 0.969-0.422 0.406 0 0.721 0.132 0.982 0.412 0.338 0.361 0.411 0.631 0.401 1.481l-0.002 0.175h-0.471c-0.259 0-0.471-0.010-0.471-0.023s0.205-0.019 0.456-0.014l0.456 0.009v-0.393c0-0.338-0.011-0.426-0.077-0.629-0.098-0.301-0.193-0.462-0.373-0.63-0.516-0.483-1.328-0.455-1.807 0.063-0.182 0.197-0.302 0.422-0.354 0.667-0.051 0.237-0.043 0.905 0.013 1.152 0.086 0.379 0.44 0.976 1.106 1.864 0.489 0.652 0.646 1.046 0.592 1.49-0.050 0.412-0.333 0.627-0.607 0.46zM12.406 16.291c0-0.153 0.012-0.26 0.030-0.26s0.030 0.101 0.030 0.241c0 0.133-0.014 0.25-0.030 0.26-0.019 0.012-0.030-0.076-0.030-0.241zM12.416 15.956c0-0.024 0.011-0.037 0.025-0.029s0.025 0.029 0.025 0.044c0 0.016-0.011 0.029-0.025 0.029s-0.025-0.020-0.025-0.044zM12.414 15.841c0.009-0.028 0.139-0.040 0.479-0.046 0.427-0.008 0.577 0.013 0.489 0.068-0.018 0.011-0.033 0.006-0.033-0.012 0-0.021-0.151-0.032-0.441-0.032-0.274 0-0.441 0.012-0.441 0.030 0 0.017-0.015 0.030-0.033 0.030s-0.027-0.017-0.020-0.038zM0.532 15.818c-0.010-0.017-0.004-0.030 0.013-0.030s0.032 0.014 0.032 0.030-0.006 0.030-0.013 0.030-0.022-0.014-0.032-0.030zM0.27 15.552c-0.038-0.048-0.037-0.049 0.011-0.011 0.051 0.040 0.067 0.065 0.042 0.065-0.006 0-0.030-0.024-0.053-0.053zM10.221 15.248l0.004-0.144 0.037 0.243h0.263c0.145 0 0.247 0.010 0.228 0.022s-0.148 0.023-0.286 0.023l-0.251 0 0.004-0.144zM10.738 14.998c-0.022-0.175-0.052-0.429-0.067-0.563s-0.054-0.476-0.088-0.761-0.060-0.558-0.058-0.608c0.005-0.151 0.082 0.358 0.147 0.973 0.033 0.318 0.075 0.705 0.094 0.861s0.028 0.313 0.023 0.35c-0.006 0.037-0.028-0.077-0.050-0.252zM10.251 14.991c-0.002-0.062 0.016-0.261 0.039-0.441s0.065-0.519 0.093-0.754 0.063-0.515 0.078-0.623l0.028-0.198-0.012 0.258c-0.011 0.229-0.181 1.706-0.21 1.824-0.006 0.025-0.013-0.005-0.015-0.067zM21.148 13.507c-0.065-0.067-0.112-0.122-0.104-0.122s0.069 0.055 0.134 0.122 0.112 0.122 0.104 0.122-0.069-0.055-0.134-0.122zM20.89 13.22c0-0.007 0.121-0.223 0.269-0.479s0.346-0.599 0.441-0.763c0.094-0.164 0.172-0.314 0.172-0.335 0-0.036-0.139-0.128-0.471-0.312-0.084-0.046-0.303-0.172-0.486-0.28s-0.423-0.247-0.532-0.31c-0.109-0.063-0.458-0.264-0.775-0.447s-0.602-0.342-0.631-0.353c-0.030-0.011-0.053-0.050-0.052-0.089 0.001-0.060 0.006-0.063 0.038-0.022 0.037 0.047 0.577 0.366 1.846 1.092 0.36 0.206 0.702 0.404 0.761 0.442s0.165 0.098 0.236 0.134c0.163 0.083 0.163 0.127 0.003 0.407-0.069 0.121-0.167 0.295-0.217 0.387s-0.149 0.263-0.219 0.38c-0.070 0.117-0.174 0.292-0.23 0.388-0.087 0.147-0.151 0.216-0.151 0.162zM1.692 12.118c-0.016-0.054-0.135-0.492-0.263-0.972-0.035-0.131-0.090-0.338-0.123-0.459s-0.059-0.236-0.059-0.256c0-0.095 0.044 0.039 0.17 0.51 0.253 0.952 0.317 1.207 0.304 1.22-0.007 0.007-0.020-0.012-0.029-0.043zM18.668 11.021l-0.105-0.114 0.114 0.105c0.106 0.098 0.128 0.123 0.105 0.123-0.005 0-0.056-0.051-0.114-0.114zM10.034 11.091c0-0.007 0.014-0.022 0.030-0.032s0.030-0.004 0.030 0.013-0.014 0.032-0.030 0.032-0.030-0.006-0.030-0.013zM18.411 10.77c-0.048-0.050-0.081-0.091-0.072-0.091s0.055 0.041 0.103 0.091 0.081 0.091 0.072 0.091-0.055-0.041-0.103-0.091zM18.182 10.534l-0.105-0.114 0.114 0.105c0.106 0.098 0.128 0.123 0.105 0.123-0.005 0-0.056-0.051-0.114-0.114zM1.163 10.147c-0.103-0.379-0.109-0.491-0.008-0.152 0.050 0.167 0.087 0.325 0.083 0.35s-0.038-0.064-0.075-0.198zM17.56 9.918c-0.25-0.251-0.448-0.456-0.439-0.456s0.214 0.199 0.456 0.442c0.502 0.505 0.469 0.47 0.452 0.47-0.007 0-0.218-0.205-0.468-0.456zM1.021 9.611c-0.061-0.18-0.172-0.675-0.164-0.73 0.008-0.056 0.045-0.077 0.208-0.119 0.109-0.028 0.334-0.088 0.502-0.133s0.461-0.122 0.654-0.171 0.375-0.104 0.406-0.122c0.042-0.024 0.053-0.023 0.044 0.005-0.012 0.036-0.374 0.141-1.332 0.389-0.374 0.097-0.442 0.123-0.45 0.175-0.005 0.034 0.033 0.21 0.084 0.391s0.086 0.336 0.078 0.344c-0.008 0.008-0.021-0.005-0.029-0.028zM16.496 8.854c-0.317-0.318-0.57-0.578-0.562-0.578s0.275 0.26 0.592 0.578 0.57 0.578 0.562 0.578-0.275-0.26-0.592-0.578zM4.47 9.4c0-0.008 0.144-0.158 0.319-0.333s0.319-0.311 0.319-0.303c0 0.008-0.144 0.158-0.319 0.333s-0.319 0.311-0.319 0.303zM5.14 8.727c0.038-0.055 0.92-0.938 0.929-0.929 0.006 0.006-0.204 0.222-0.467 0.48s-0.47 0.461-0.463 0.449zM2.659 7.517c0-0.41 0.004-0.577 0.010-0.372s0.005 0.54 0 0.745c-0.005 0.205-0.010 0.037-0.010-0.372zM6.143 7.72c0-0.028 0.309-0.33 0.323-0.316 0.005 0.005-0.065 0.084-0.157 0.174s-0.167 0.154-0.167 0.142zM6.646 7.204c0.011-0.030 0.028-0.047 0.038-0.037s0 0.034-0.021 0.055c-0.030 0.030-0.034 0.026-0.017-0.017zM7.116 6.754c0-0.008 0.055-0.069 0.122-0.134s0.122-0.112 0.122-0.104-0.055 0.069-0.122 0.134-0.122 0.112-0.122 0.104zM2.657 6.604c0.003-0.134 0.006-0.137 0.11-0.143l0.106-0.006-0.097 0.029c-0.083 0.025-0.099 0.046-0.11 0.143s-0.012 0.093-0.009-0.023zM18.805 6.515c-0.016-0.015-0.069-0.033-0.12-0.041-0.084-0.012-0.082-0.013 0.021-0.018 0.062-0.003 0.121 0.010 0.132 0.028 0.027 0.043 0.002 0.065-0.034 0.030zM6.021 6.474c0.025-0.020 0.079-0.099 0.12-0.174s0.151-0.267 0.245-0.426 0.213-0.364 0.263-0.456 0.263-0.461 0.472-0.821 0.44-0.76 0.513-0.889c0.073-0.13 0.143-0.236 0.155-0.236s0.273 0.146 0.579 0.324c0.306 0.178 0.663 0.384 0.792 0.457s0.243 0.147 0.253 0.163c0.023 0.037-0.054 0.039-0.094 0.002-0.026-0.024-0.708-0.422-1.289-0.751l-0.226-0.128-0.278 0.476c-0.153 0.262-0.42 0.722-0.593 1.023s-0.407 0.705-0.519 0.897c-0.113 0.192-0.23 0.401-0.261 0.463-0.037 0.074-0.077 0.113-0.117 0.113-0.053-0-0.055-0.005-0.015-0.037zM3.639 6.46c0.404-0.005 1.075-0.005 1.49 0s0.084 0.009-0.735 0.009c-0.819 0-1.159-0.004-0.755-0.009zM16.893 6.186c-0.184-0.649-0.231-0.821-0.276-1.010-0.026-0.108-0.068-0.267-0.093-0.352l-0.045-0.156-0.265 0.072c-0.146 0.040-0.409 0.112-0.585 0.16s-0.456 0.123-0.623 0.167c-0.167 0.044-0.345 0.091-0.395 0.105-0.886 0.244-1.363 0.368-1.409 0.365-0.056-0.003 0.455-0.152 1.090-0.319 0.719-0.189 0.944-0.249 1.58-0.42 0.342-0.092 0.63-0.16 0.638-0.151s0.031 0.080 0.050 0.158c0.097 0.404 0.395 1.499 0.439 1.609 0.015 0.038 0.016 0.068 0.002 0.068s-0.062-0.133-0.109-0.296zM17.444 6.46c0.204-0.005 0.546-0.005 0.76-0s0.047 0.010-0.371 0.010-0.593-0.004-0.389-0.010z" fill="#000000"></path>
</svg>
