<?xml version="1.0" encoding="UTF-8" standalone="no"?>
<!-- Created with Inkscape (http://www.inkscape.org/) -->

<svg
   xmlns:dc="http://purl.org/dc/elements/1.1/"
   xmlns:cc="http://creativecommons.org/ns#"
   xmlns:rdf="http://www.w3.org/1999/02/22-rdf-syntax-ns#"
   xmlns:svg="http://www.w3.org/2000/svg"
   xmlns="http://www.w3.org/2000/svg"
   xmlns:sodipodi="http://sodipodi.sourceforge.net/DTD/sodipodi-0.dtd"
   xmlns:inkscape="http://www.inkscape.org/namespaces/inkscape"
   width="744.09448819"
   height="1052.3622047"
   id="svg3004"
   version="1.1"
   inkscape:version="0.48.4 r9939"
   sodipodi:docname="logo_path.svg">
  <defs
     id="defs3006" />
  <sodipodi:namedview
     id="base"
     pagecolor="#ffffff"
     bordercolor="#666666"
     borderopacity="1.0"
     inkscape:pageopacity="0.0"
     inkscape:pageshadow="2"
     inkscape:zoom="0.35"
     inkscape:cx="375"
     inkscape:cy="520"
     inkscape:document-units="px"
     inkscape:current-layer="layer1"
     showgrid="false"
     inkscape:window-width="681"
     inkscape:window-height="749"
     inkscape:window-x="0"
     inkscape:window-y="17"
     inkscape:window-maximized="0" />
  <metadata
     id="metadata3009">
    <rdf:RDF>
      <cc:Work
         rdf:about="">
        <dc:format>image/svg+xml</dc:format>
        <dc:type
           rdf:resource="http://purl.org/dc/dcmitype/StillImage" />
        <dc:title></dc:title>
      </cc:Work>
    </rdf:RDF>
  </metadata>
  <g
     inkscape:label="Layer 1"
     inkscape:groupmode="layer"
     id="layer1">
    <path
       style="fill:#000000"
       d="m 341.25237,843.18361 -4.45821,-4.75 4.75,4.45821 c 4.41519,4.14396 5.20909,5.04179 4.45821,5.04179 -0.16049,0 -2.29799,-2.1375 -4.75,-4.75 z m 95.5277,-7.34181 c -7.69225,-4.4505 -19.49841,-11.25482 -26.23591,-15.12071 -10.38584,-5.95927 -14.15925,-8.78748 -11.72428,-8.78748 0.28915,0 9.62665,5.31626 20.75,11.81392 27.33207,15.9659 31.78381,18.4609 32.1942,18.04342 0.19319,-0.19654 6.0709,-10.25734 13.06158,-22.35734 6.99067,-12.1 14.82607,-25.6 17.412,-30 2.58592,-4.4 9.39401,-16.20454 15.12909,-26.23232 9.95167,-17.40048 10.56428,-18.22857 13.42741,-18.15032 2.62303,0.0717 2.71583,0.16372 0.73856,0.73232 -2.30973,0.6642 -3.45317,2.51714 -30.02194,48.65032 -6.33506,11 -12.46292,21.61924 -13.61746,23.5983 -1.15454,1.97907 -4.95278,8.61657 -8.44054,14.75 -3.48776,6.13344 -6.8691,11.1517 -7.51409,11.1517 -0.64499,0 -7.46637,-3.64132 -15.15862,-8.09181 z M 164.84953,804.79542 c -1.89374,-5.51439 -8.58649,-32.26845 -8.2927,-33.14982 0.2023,-0.60689 0.90585,0.89714 1.56346,3.34229 9.15525,34.04164 6.71741,30.59058 19.17387,27.14289 4.125,-1.14172 16.05,-4.34768 26.5,-7.12437 10.45,-2.77668 21.25,-5.72266 24,-6.54661 4.70427,-1.40949 31.36753,-8.51693 39.89031,-10.63328 2.13967,-0.53132 4.38967,-0.79208 5,-0.57947 0.61033,0.21262 -0.91531,0.87285 -3.39031,1.46718 -2.475,0.59433 -12.825,3.32169 -23,6.0608 -10.175,2.73911 -27.725,7.46007 -39,10.49102 -11.275,3.03095 -24.1,6.51024 -28.5,7.73175 -11.26043,3.12608 -13.39396,3.40111 -13.94463,1.79762 z M 289.1666,791.18361 c -1.24387,-1.58606 -1.2085,-1.62143 0.37756,-0.37756 0.9625,0.75485 1.75,1.54235 1.75,1.75 0,0.82304 -0.82119,0.29331 -2.12756,-1.37244 z m -135.81933,-29.5 c -1.19129,-4.5375 -2.81559,-9.94661 -3.60955,-12.02024 -1.66731,-4.35461 -1.71981,-4.72976 -0.66188,-4.72976 0.42993,0 1.37241,2.1375 2.09439,4.75 0.72199,2.6125 1.91354,6.775 2.64791,9.25 1.74915,5.89512 2.75389,11 2.16503,11 -0.25845,0 -1.44461,-3.7125 -2.6359,-8.25 z m -65.903285,-19 c 0.13546,-2.93818 0.18926,-2.9918 0.56075,-0.55883 0.33019,2.16254 1.03739,2.76951 3.600173,3.08997 3.06561,0.38333 3.04387,0.40499 -0.56075,0.55882 -3.624963,0.1547 -3.745003,0.0517 -3.600173,-3.08996 z m 528.100175,2.52153 c 2.0625,-0.21574 3.75,-0.8151 3.75,-1.3319 0,-0.51679 0.375,-0.93963 0.83333,-0.93963 0.45834,0 0.83334,0.675 0.83334,1.5 0,1.1396 -1.10122,1.45961 -4.58334,1.3319 -4.35737,-0.15982 -4.39845,-0.18744 -0.83333,-0.56037 z m -143.25,-6.77153 c 0.68469,-0.825 1.46989,-1.5 1.74489,-1.5 0.275,0 -0.0602,0.675 -0.74489,1.5 -0.68469,0.825 -1.46989,1.5 -1.74489,1.5 -0.275,0 0.0602,-0.675 0.74489,-1.5 z m -385.000005,-53.41844 0,-50.91844 -3.25,-1.99869 c -1.7875,-1.09928 -5.95019,-3.49848 -9.25043,-5.33156 -3.30023,-1.83308 -9.08661,-5.13287 -12.85862,-7.33287 -3.77201,-2.2 -21.32181,-12.35141 -38.99957,-22.55868 -24.8847507,-14.36865 -32.2124307,-19.04503 -32.4560607,-20.71284 -0.18887,-1.29288 2.66469,-7.26677 7.13703,-14.94132 4.0984404,-7.03294 10.6892304,-18.41134 14.6462007,-25.28535 7.94489,-13.80176 7.79167,-13.57492 8.61378,-12.75282 0.32028,0.32028 -4.69411,9.73278 -11.1430803,20.91667 -6.44898,11.18389 -12.5187104,21.73519 -13.4883004,23.44733 -0.96958,1.71215 -2.36441,4.07621 -3.09962,5.25346 -0.92246,1.47709 -1.02908,2.6049 -0.34404,3.63905 0.83693,1.26342 45.4948207,27.49062 84.7427107,49.76866 l 10.75,6.10196 0,51.81194 c 0,28.49657 -0.225,51.81194 -0.5,51.81194 -0.275,0 -0.5,-22.9133 -0.5,-50.91844 z m 406.000005,32.8648 c 0,-0.275 3.15,-3.62586 7,-7.44636 3.85,-3.8205 7,-6.72136 7,-6.44636 0,0.275 -3.15,3.62586 -7,7.44636 -3.85,3.8205 -7,6.72136 -7,6.44636 z m 15,-15.07218 c 0,-0.275 1.35,-1.79338 3,-3.37418 1.65,-1.5808 3,-2.64918 3,-2.37418 0,0.275 -1.35,1.79338 -3,3.37418 -1.65,1.5808 -3,2.64918 -3,2.37418 z m 8.0722,-8.62418 c 0.0397,-0.4125 1.72721,-2.07592 3.75,-3.6965 l 3.6778,-2.94649 -3.44617,3.69649 c -3.56127,3.81997 -4.10441,4.2219 -3.98163,2.9465 z m -378.07607,-54 -48.496135,-48.75 48.750005,48.49613 c 26.8125,26.67288 48.75,48.61038 48.75,48.75 0,0.70302 -3.92661,-3.18291 -49.00387,-48.49613 z m 388.0075,44.25 c 1.37301,-1.65 2.60887,-3.1875 2.74637,-3.41667 0.1375,-0.22916 0.47031,-0.19636 0.73957,0.0729 0.26926,0.26926 -0.9666,1.80676 -2.74637,3.41666 l -3.23593,2.9271 2.49636,-3 z m 93.2362,0.28052 c 0.41773,-1.2532 4.76413,-3.0808 4.75237,-1.9983 -0.004,0.39478 -1.15705,1.25104 -2.56168,1.9028 -1.75029,0.81215 -2.43959,0.8422 -2.19069,0.0955 z m 6.76017,-2.63879 c 0.825,-0.48716 12.3,-3.7025 25.5,-7.14519 13.2,-3.4427 24.8327,-6.69032 25.85045,-7.21693 2.38864,-1.23598 2.45307,-0.89652 -6.29376,-33.16 -1.17504,-4.33422 -1.98147,-8.34526 -1.79208,-8.91344 0.46867,-1.406 9.93003,33.74929 10.48077,38.94308 l 0.43998,4.14925 -4.34268,1.02822 c -10.59778,2.50926 -17.6672,4.32343 -21.84268,5.60532 -5.91851,1.81701 -22.69452,6.24985 -26.5,7.00227 -1.97161,0.38983 -2.4858,0.28953 -1.5,-0.29258 z m -72,-25.64173 c 1.29175,-1.375 2.57363,-2.5 2.84863,-2.5 0.275,0 -0.55688,1.125 -1.84863,2.5 -1.29175,1.375 -2.57363,2.5 -2.84863,2.5 -0.275,0 0.55688,-1.125 1.84863,-2.5 z m 113.08683,-36.5 c -0.65154,-2.475 -1.61262,-5.80465 -2.13573,-7.39922 -1.28256,-3.90962 -1.11848,-6.81641 0.20327,-3.60078 1.71861,4.18116 3.92913,13.25532 3.51078,14.41174 -0.21653,0.59854 -0.92678,-0.93674 -1.57832,-3.41174 z m -6.00049,-22.25 c -2.94781,-11.40281 -5.89384,-22.26358 -7.74594,-28.55599 -0.85897,-2.91829 -1.29755,-5.57019 -0.97462,-5.89312 0.71917,-0.71917 0.74987,-0.62615 4.68562,14.19911 1.75214,6.6 4.20213,15.7125 5.44442,20.25 1.24229,4.5375 1.91324,8.25 1.491,8.25 -0.42225,0 -1.72746,-3.7125 -2.90048,-8.25 z m -219.984,-4.3331 c -7.21373,-1.93985 -16.28288,-7.58026 -20.53835,-12.77351 -1.9065,-2.32663 -5.0597,-7.58569 -7.0071,-11.68681 -2.8789,-6.06278 -3.62593,-8.95196 -3.9965,-15.45658 -0.25066,-4.4 -0.24905,-6.875 0.004,-5.5 0.25263,1.375 0.92939,5.2 1.5039,8.5 4.1442,23.80433 25.77797,40.17139 48.43549,36.64394 13.43691,-2.09194 26.34601,-10.92559 31.76012,-21.73334 5.36115,-10.70202 6.22763,-14.94897 6.20449,-30.4106 -0.034,-22.7023 -3.33139,-31.51922 -22.63634,-60.52701 -32.97431,-49.54745 -33.35621,-50.23385 -34.92915,-62.77831 -1.29082,-10.29446 0.47385,-17.0619 5.62938,-21.58852 4.64891,-4.08179 10.83958,-4.34479 14.84711,-0.63074 3.6003,3.33664 6.64712,10.76582 6.5034,15.85749 l -0.11803,4.16709 -0.79404,-4.5 c -1.17255,-6.645 -3.50593,-11.43112 -7.01086,-14.38032 -3.71039,-3.12209 -6.35362,-3.28672 -10.65553,-0.66368 -5.72503,3.49077 -6.80573,6.27507 -6.79244,17.50002 0.0108,9.12491 0.29324,10.63876 3.08657,16.54398 1.69108,3.575 10.27906,17.30705 19.0844,30.51566 27.56773,41.35349 29.89556,45.53715 33.37591,59.98434 2.21866,9.20979 2.65025,29.05019 0.82012,37.70078 -2.76473,13.06817 -12.29315,26.39878 -22.64358,31.67917 -9.80449,5.00188 -23.43345,6.41415 -34.13297,3.53695 z m -200.10234,-44.27332 0,-42.90989 -5.43104,-21.36685 c -2.98707,-11.75176 -7.6992,-30.14184 -10.47138,-40.86684 -14.13712,-54.69345 -19.90535,-78.33737 -19.41996,-79.60227 0.42499,-1.10752 3.52922,-1.39773 14.95081,-1.39773 13.99823,0 14.44207,0.065 15.37098,2.25 0.52609,1.2375 3.01285,13.275 5.52613,26.75 2.51328,13.475 5.40929,29 6.43558,34.5 1.02628,5.5 3.06083,16.3 4.52121,24 3.46628,18.27622 3.89996,21.40069 2.7066,19.5 -0.51798,-0.825 -1.70861,-5.775 -2.64585,-11 -4.80139,-26.76718 -17.58518,-93.25911 -18.08582,-94.06915 -0.61762,-0.99933 -26.73136,-1.32341 -27.71087,-0.3439 -0.32282,0.32282 0.0273,2.68532 0.77813,5.25 0.75079,2.56468 4.286,16.13805 7.85602,30.16305 18.31384,71.94686 21.72163,85.25714 24.06649,94 2.54463,9.48773 2.54793,9.55587 2.55045,52.75 l 0.003,43.25 14,0 14,0 0,-43.84004 c 0,-41.06046 0.13078,-44.34155 2.06262,-51.75 2.89241,-11.09208 8.79456,-34.05162 17.45744,-67.90996 4.08091,-15.95 9.22814,-35.975 11.43827,-44.5 2.21014,-8.525 4.02366,-16.07486 4.03005,-16.77746 0.009,-0.99011 -3.1849,-1.21504 -14.19939,-1 l -14.2115,0.27746 -2.27361,12.5 c -1.25048,6.875 -2.9515,16.325 -3.78004,21 -0.82854,4.675 -3.94828,22 -6.93275,38.5 -2.98446,16.5 -5.6272,31.125 -5.87275,32.5 -0.34772,1.94711 -0.47654,1.72596 -0.58247,-1 -0.0748,-1.925 0.51872,-6.92152 1.31894,-11.10339 0.80022,-4.18186 2.35326,-12.73186 3.4512,-19 4.32541,-24.69379 13.12426,-72.46514 13.56472,-73.64661 0.34444,-0.92389 4.38751,-1.25 15.49741,-1.25 l 15.03138,0 0,2.55416 c 0,1.40479 -2.05404,10.51729 -4.56453,20.25 -2.51049,9.73271 -6.81527,26.47084 -9.56618,37.19584 -2.7509,10.725 -8.45656,32.775 -12.67923,49 l -7.67759,29.5 -0.50623,45 -0.50624,45 -14.75,0.27673 -14.75,0.27674 0,-42.90989 z m 55.30359,41.20518 c -0.3485,-0.90818 0.37731,-8.22068 1.61292,-16.25 1.23562,-8.02932 3.08325,-20.22376 4.10586,-27.09876 3.61651,-24.31371 10.88363,-71.36031 16.99132,-110 1.60834,-10.175 3.87652,-24.8 5.0404,-32.5 1.16387,-7.7 2.75283,-17.77145 3.53102,-22.38099 0.77819,-4.60954 1.42178,-9.55954 1.4302,-11 0.008,-1.44046 0.49051,-3.29401 1.0713,-4.11901 1.25808,-1.78707 0.88757,1.58608 -2.63617,24 -1.34024,8.525 -2.89627,18.65 -3.45786,22.5 -2.16651,14.85274 -5.02587,33.23696 -5.98803,38.5 -0.55301,3.025 -2.35331,14.5 -4.00067,25.5 -2.8027,18.71472 -6.13406,40.53575 -11.06838,72.5 -3.82205,24.75904 -5.88931,38.49233 -5.91252,39.27822 -0.0126,0.42802 6.16452,0.65302 13.72702,0.5 l 13.75,-0.27822 1.12426,-9 c 0.61834,-4.95 1.65077,-14.4 2.29429,-21 0.64352,-6.6 1.41733,-14.1375 1.71958,-16.75 l 0.54955,-4.75 15.21719,0 15.21719,0 2.19128,19.25 c 1.20521,10.5875 2.47739,22.2875 2.82707,26 l 0.63578,6.75 14.87372,0 14.87373,0 -0.5748,-4.25 c -0.31613,-2.3375 -0.82242,-5.375 -1.12509,-6.75 -0.30266,-1.375 -0.92505,-5.425 -1.38308,-9 -0.45803,-3.575 -1.54569,-10.775 -2.41702,-16 -0.87133,-5.225 -2.91364,-18.275 -4.53846,-29 -1.62483,-10.725 -4.11665,-26.925 -5.53738,-36 -1.42074,-9.075 -3.41912,-22.125 -4.44085,-29 -1.02173,-6.875 -3.02716,-19.925 -4.45651,-29 -4.62287,-29.35079 -7.57169,-48.40866 -8.12332,-52.5 -0.29662,-2.2 -0.99345,-6.35032 -1.5485,-9.22294 l -1.00919,-5.22294 -14.18472,-0.3068 -14.18472,-0.3068 14.64301,-0.22026 c 12.37128,-0.18609 14.73429,0.0176 15.23134,1.31289 0.32357,0.84323 1.77096,9.50573 3.21642,19.25 1.44545,9.74427 2.98743,19.96685 3.42661,22.71685 3.9338,24.63203 11.99407,76.60771 15.04254,97 1.16614,7.80072 10.4652,67.74 12.04143,77.61591 1.83383,11.48982 2.56082,10.98382 -15.31625,10.66025 l -15.25759,-0.27616 -1.25875,-10.5 c -0.69231,-5.775 -2.0485,-17.475 -3.01375,-26 l -1.75501,-15.5 -13.41979,-0.28021 c -7.38089,-0.15411 -13.7722,0.0722 -14.20292,0.50292 -0.43072,0.43072 -1.93832,11.80681 -3.35022,25.28021 -1.4119,13.47339 -2.76896,25.05958 -3.01569,25.74708 -0.32999,0.91948 -4.16709,1.25 -14.51138,1.25 -12.15021,0 -14.14895,-0.22457 -14.69641,-1.65124 z m 151.15361,-30.21179 c -6.11941,-3.73174 -8.4572,-11.01634 -8.4572,-26.35286 0,-13.03543 1.40191,-9.87509 2.03164,4.57995 0.60859,13.96979 2.14533,17.96282 8.03002,20.86502 10.54806,5.20208 19.45039,-7.88991 16.80595,-24.71522 -1.83881,-11.69946 -4.48975,-17.05636 -16.73931,-33.826 -24.36759,-33.35921 -34.60102,-50.15926 -37.96555,-62.32737 -2.81882,-10.19455 -3.68689,-28.70842 -1.82915,-39.01146 1.70694,-9.46666 6.38231,-19.92193 11.38469,-25.45898 7.32618,-8.1092 20.58393,-13.89005 31.85532,-13.89005 13.36666,0 23.69639,4.32675 32.30812,13.53272 11.11307,11.87992 13.51841,20.76634 13.18654,48.71728 l -0.0683,5.75 -15.5,0 c -8.525,0 -15.50067,-0.3375 -15.5015,-0.75 -8.2e-4,-0.4125 6.74918,-0.61495 15,-0.44989 l 15.0015,0.30011 0,-12.92247 c 0,-11.1162 -0.35367,-14.0059 -2.53024,-20.67363 -3.23547,-9.91162 -6.36292,-15.19511 -12.25881,-20.71003 -16.97946,-15.8823 -43.66934,-14.9476 -59.43526,2.08147 -5.98334,6.46273 -9.91893,13.87429 -11.64159,21.92366 -1.66893,7.7983 -1.42971,29.7746 0.41244,37.88873 2.83186,12.47356 14.48586,32.11277 36.38284,61.31205 16.08763,21.4526 21.24093,34.41672 19.47771,49 -1.63853,13.55207 -10.95594,20.62165 -19.94989,15.13697 z m -39.4572,-24.57795 c 0,-5.03935 0.41122,-8.55902 1,-8.55902 0.58271,0 1,3.31366 1,7.94098 0,4.36754 -0.45,8.2191 -1,8.55902 -0.63692,0.39364 -1,-2.48962 -1,-7.94098 z m 0.33333,-11.01503 c 0,-0.80081 0.375,-1.22425 0.83334,-0.94098 0.45833,0.28326 0.83333,0.93847 0.83333,1.45601 0,0.51754 -0.375,0.94098 -0.83333,0.94098 -0.45834,0 -0.83334,-0.65521 -0.83334,-1.45601 z m -0.0845,-3.79399 c 0.30283,-0.91105 4.57532,-1.32511 15.75635,-1.52698 14.03602,-0.25342 18.98265,0.43039 16.08194,2.22313 -0.59791,0.36954 -1.08712,0.19533 -1.08712,-0.38713 0,-0.69667 -4.9613,-1.05902 -14.5,-1.05902 -9,0 -14.5,0.37931 -14.5,1 0,0.55 -0.4875,1 -1.08333,1 -0.59584,0 -0.89636,-0.5625 -0.66783,-1.25 z m -390.748835,-0.75 c -0.33992,-0.55 -0.14148,-1 0.44098,-1 0.58246,0 1.05902,0.45 1.05902,1 0,0.55 -0.19844,1 -0.44098,1 -0.24254,0 -0.7191,-0.45 -1.05902,-1 z m -8.6275603,-8.75 c -1.24387,-1.58606 -1.2085,-1.62143 0.37756,-0.37756 1.6657503,1.30637 2.1954803,2.12756 1.3724403,2.12756 -0.20765,0 -0.9951503,-0.7875 -1.7500003,-1.75 z m 327.2694753,-10 0.1419,-4.75 0.6081,4 0.60809,4 8.65873,0 c 4.7623,0 8.1373,0.33061 7.5,0.73469 -0.6373,0.40408 -4.87123,0.74158 -9.40873,0.75 l -8.25,0.0153 0.14191,-4.75 z m 17.00194,-8.23699 c -0.72368,-5.76785 -1.70814,-14.09285 -2.18769,-18.5 -0.47955,-4.40716 -1.7836,-15.66301 -2.89788,-25.01301 -1.11427,-9.35 -1.97837,-18.35 -1.92021,-20 0.17502,-4.96542 2.69506,11.77023 4.81855,32 1.09691,10.45 2.48326,23.18884 3.08077,28.30853 0.5975,5.11968 0.93694,10.29468 0.75431,11.5 -0.18264,1.20531 -0.92417,-2.52768 -1.64785,-8.29552 z m -16.02785,-0.22863 c -0.0638,-2.04359 0.51369,-8.56859 1.2833,-14.5 0.76962,-5.93141 2.13951,-17.08438 3.04421,-24.78438 0.9047,-7.7 2.05691,-16.925 2.56047,-20.5 l 0.91556,-6.5 -0.40814,8.5 c -0.3609,7.51632 -5.95916,56.11453 -6.91167,60 -0.20225,0.825 -0.41993,-0.17203 -0.48373,-2.21562 z m 358.384,-48.78438 c -2.14824,-2.2 -3.6809,-4 -3.4059,-4 0.275,0 2.25766,1.8 4.4059,4 2.14824,2.2 3.6809,4 3.4059,4 -0.275,0 -2.25766,-1.8 -4.4059,-4 z m -8.5,-9.43881 c 0,-0.24134 3.98302,-7.32884 8.85116,-15.75 4.86813,-8.42115 11.39313,-19.71461 14.5,-25.09657 3.10686,-5.38196 5.64884,-10.33933 5.64884,-11.01637 0,-1.17514 -4.56725,-4.19698 -15.5,-10.25528 -2.75,-1.52389 -9.95,-5.67198 -16,-9.21798 -6.05,-3.54601 -13.925,-8.13314 -17.5,-10.19364 -3.575,-2.06049 -15.05,-8.68033 -25.5,-14.71074 -10.45,-6.03041 -19.7875,-11.25542 -20.75,-11.61111 -0.98255,-0.36311 -1.73605,-1.64722 -1.7182,-2.92812 0.0276,-1.97576 0.195,-2.0739 1.25,-0.73256 1.20476,1.53173 18.97491,12.04166 60.7182,35.91101 11.825,6.76168 23.08506,13.30046 25.02236,14.53061 1.93729,1.23015 5.42479,3.20719 7.75,4.39342 5.35761,2.73326 5.36805,4.18464 0.0964,13.39681 -2.2722,3.97063 -5.48467,9.69433 -7.13881,12.71933 -1.65415,3.025 -4.89637,8.65 -7.20493,12.5 -2.30857,3.85 -5.71619,9.5875 -7.57248,12.75 -2.8453,4.84738 -4.95254,7.10723 -4.95254,5.31119 z M 55.923475,398.25897 c -0.53965,-1.78038 -4.44441,-16.19029 -8.66463,-31.97551 -1.15427,-4.31742 -2.96853,-11.10408 -4.03169,-15.08147 -1.06315,-3.97739 -1.933,-7.76489 -1.933,-8.41666 0,-3.10782 1.45848,1.27434 5.58456,16.77939 8.33111,31.3068 10.42431,39.69335 10.01039,40.10728 -0.22679,0.22678 -0.66132,-0.40908 -0.96563,-1.41303 z m 558.316855,-36.07536 -3.44617,-3.75 3.75,3.44617 c 3.49042,3.20761 4.20979,4.05383 3.44617,4.05383 -0.16711,0 -1.85461,-1.6875 -3.75,-3.75 z m -283.94617,2.30902 c 0,-0.24254 0.45,-0.7191 1,-1.05902 0.55,-0.33992 1,-0.14148 1,0.44098 0,0.58246 -0.45,1.05902 -1,1.05902 -0.55,0 -1,-0.19844 -1,-0.44098 z m 275.5,-10.55902 c -1.5808,-1.65 -2.64918,-3 -2.37418,-3 0.275,0 1.79338,1.35 3.37418,3 1.5808,1.65 2.64918,3 2.37418,3 -0.275,0 -1.79338,-1.35 -3.37418,-3 z m -7.55383,-7.75 -3.44617,-3.75 3.75,3.44617 c 3.49042,3.20761 4.20979,4.05383 3.44617,4.05383 -0.16711,0 -1.85461,-1.6875 -3.75,-3.75 z m -559.717275,-12.75 c -3.4011,-12.45016 -3.59171,-16.16154 -0.25678,-5 1.64332,5.5 2.86509,10.675 2.71503,11.5 -0.15006,0.825 -1.25627,-2.1 -2.45825,-6.5 z m 539.271105,-7.5 c -8.23625,-8.25 -14.73189,-15 -14.43477,-15 0.29712,0 7.04149,6.54013 14.98749,14.53363 16.49678,16.59539 15.41265,15.46637 14.85144,15.46637 -0.23604,0 -7.16791,-6.75 -15.40416,-15 z M 33.869525,315.82674 c -2.00317,-5.91611 -5.66698,-22.20779 -5.40275,-24.02416 0.26975,-1.85426 1.47166,-2.54599 6.82738,-3.9293 3.575,-0.92337 11,-2.8861 16.5,-4.36161 5.5,-1.47551 15.175,-4.01277 21.5,-5.63835 6.325,-1.62557 12.33646,-3.43641 13.35881,-4.02408 1.39517,-0.80198 1.75723,-0.76374 1.45154,0.15332 -0.38975,1.16926 -12.28413,4.63856 -43.81035,12.77841 -12.30787,3.1778 -14.54482,4.05045 -14.79648,5.77216 -0.16306,1.1156 1.07377,6.90826 2.74852,12.87257 1.67475,5.96432 2.83125,11.05795 2.57002,11.31919 -0.26124,0.26124 -0.68725,-0.15193 -0.94669,-0.91815 z M 542.79416,290.93361 c -10.43914,-10.45 -18.75526,-19 -18.48026,-19 0.275,0 9.04112,8.55 19.48026,19 10.43914,10.45 18.75526,19 18.48026,19 -0.275,0 -9.04112,-8.55 -19.48026,-19 z m -395.5,17.96427 c 0,-0.275 4.725,-5.20892 10.5,-10.96427 5.775,-5.75535 10.5,-10.23927 10.5,-9.96427 0,0.275 -4.725,5.20892 -10.5,10.96427 -5.775,5.75535 -10.5,10.23927 -10.5,9.96427 z m 22.03545,-22.14474 c 1.24417,-1.82245 30.27076,-30.84666 30.55996,-30.55745 0.18332,0.18331 -6.72221,7.28684 -15.34561,15.78561 -8.62339,8.49877 -15.46985,15.1461 -15.21435,14.77184 z M 87.726595,246.93361 c 0,-13.475 0.14155,-18.9875 0.31456,-12.25 0.17301,6.7375 0.17301,17.7625 0,24.5 -0.17301,6.7375 -0.31456,1.225 -0.31456,-12.25 z m 114.567565,6.68504 c 0,-0.91063 10.16292,-10.85545 10.62317,-10.3952 0.18004,0.18004 -2.13652,2.76061 -5.14791,5.73459 -3.01139,2.97399 -5.47526,5.07126 -5.47526,4.66061 z m 16.56429,-16.97817 c 0.37553,-0.98622 0.93469,-1.54122 1.24258,-1.23333 0.30789,0.30789 6.4e-4,1.11479 -0.68278,1.79313 -0.98762,0.98026 -1.10248,0.8654 -0.5598,-0.5598 z m 15.43571,-14.80097 c 0,-0.275 1.8,-2.25766 4,-4.4059 2.2,-2.14824 4,-3.6809 4,-3.4059 0,0.275 -1.8,2.25766 -4,4.4059 -2.2,2.14824 -4,3.6809 -4,3.4059 z m -146.616575,-4.9059 c 0.11432,-4.41318 0.18409,-4.50389 3.616573,-4.70177 l 3.5,-0.20178 -3.19042,0.96493 c -2.716853,0.8217 -3.253673,1.5196 -3.616573,4.70177 -0.36257,3.1793 -0.40876,3.06544 -0.30958,-0.76315 z m 531.049905,-2.93972 c -0.51333,-0.49851 -2.28333,-1.09859 -3.93333,-1.3335 -2.74832,-0.39128 -2.69036,-0.43969 0.69098,-0.57695 2.03004,-0.0824 3.9876,0.33011 4.35014,0.9167 0.87657,1.41833 0.0723,2.13979 -1.10779,0.99375 z m -420.43333,-1.34208 c 0.825,-0.67001 2.59542,-3.2432 3.93426,-5.7182 1.33885,-2.475 4.97183,-8.775 8.07331,-14 3.10147,-5.225 6.9955,-11.975 8.6534,-15 1.6579,-3.025 8.6365,-15.175 15.508,-27 6.87149,-11.825 14.45908,-24.9875 16.86129,-29.25 2.40222,-4.2625 4.69543,-7.75 5.09602,-7.75 0.4006,0 8.97356,4.79352 19.05104,10.65227 10.07747,5.85875 21.79485,12.62692 26.03862,15.04038 4.24376,2.41345 7.98282,4.81993 8.30901,5.34773 0.74319,1.2025 -1.79018,1.26924 -3.07495,0.081 -0.8579,-0.79344 -23.29472,-13.86286 -42.37941,-24.68593 l -7.4294,-4.21328 -9.13831,15.63892 c -5.02607,8.60141 -13.7969,23.73892 -19.49073,33.63892 -5.69384,9.9 -13.38223,23.175 -17.08532,29.5 -3.70308,6.325 -7.56402,13.17643 -8.57986,15.2254 -1.21464,2.44996 -2.53169,3.72293 -3.84697,3.71819 -1.7266,-0.006 -1.79495,-0.17373 -0.5,-1.22539 z m -78.3194,-0.46719 c 13.29933,-0.15744 35.34933,-0.15759 49,-3.4e-4 13.65067,0.15725 2.7694,0.28606 -24.1806,0.28625 -26.95,1.8e-4 -38.11873,-0.12847 -24.8194,-0.28591 z m 435.89114,-9.00101 c -6.0395,-21.33824 -7.59051,-27.00914 -9.083,-33.20983 -0.85518,-3.55291 -2.22534,-8.76616 -3.0448,-11.585 l -1.48992,-5.12517 -8.72701,2.37391 c -4.79986,1.30565 -13.45201,3.67091 -19.22701,5.25613 -5.775,1.58522 -15,4.06015 -20.5,5.49983 -5.5,1.43969 -11.35,2.98935 -13,3.44369 -29.14473,8.02531 -44.82349,12.08949 -46.34291,12.01282 -1.82968,-0.0923 14.95114,-5.01157 35.84291,-10.50722 23.64717,-6.22046 31.03938,-8.18479 51.96649,-13.80905 11.25657,-3.02526 20.70626,-5.26069 20.99932,-4.96763 0.29306,0.29306 1.0351,2.63314 1.64897,5.20018 3.18095,13.30191 13.00646,49.28779 14.44844,52.91734 0.49165,1.2375 0.5281,2.25 0.081,2.25 -0.44709,0 -2.05471,-4.3875 -3.57249,-9.75 z m 18.12004,9.00347 c 6.70549,-0.17275 17.95549,-0.17325 25,-0.001 7.04452,0.17214 1.55822,0.31348 -12.19178,0.31409 -13.75,6.1e-4 -19.5137,-0.14023 -12.80822,-0.31298 z"
       id="path2991"
       inkscape:connector-curvature="0" />
  </g>
</svg>
