<?xml version="1.0" encoding="UTF-8" standalone="no"?>
<!-- Created with Inkscape (http://www.inkscape.org/) -->
<svg id="svg3004" xmlns:rdf="http://www.w3.org/1999/02/22-rdf-syntax-ns#" xmlns="http://www.w3.org/2000/svg" height="1052.4" width="744.09" version="1.1" xmlns:cc="http://creativecommons.org/ns#" xmlns:dc="http://purl.org/dc/elements/1.1/">
 <metadata id="metadata3009">
  <rdf:RDF>
   <cc:Work rdf:about="">
    <dc:format>image/svg+xml</dc:format>
    <dc:type rdf:resource="http://purl.org/dc/dcmitype/StillImage"/>
    <dc:title/>
   </cc:Work>
  </rdf:RDF>
 </metadata>
 <g id="layer1">
  <path id="path2991" fill="#000" d="m341.25,843.18-4.4582-4.75,4.75,4.4582c4.4152,4.144,5.2091,5.0418,4.4582,5.0418-0.16049,0-2.298-2.1375-4.75-4.75zm95.528-7.3418c-7.6922-4.4505-19.498-11.255-26.236-15.121-10.386-5.9593-14.159-8.7875-11.724-8.7875,0.28915,0,9.6266,5.3163,20.75,11.814,27.332,15.966,31.784,18.461,32.194,18.043,0.19319-0.19654,6.0709-10.257,13.062-22.357,6.9907-12.1,14.826-25.6,17.412-30,2.5859-4.4,9.394-16.205,15.129-26.232,9.9517-17.4,10.564-18.229,13.427-18.15,2.623,0.0717,2.7158,0.16372,0.73856,0.73232-2.3097,0.6642-3.4532,2.5171-30.022,48.65-6.3351,11-12.463,21.619-13.617,23.598-1.1545,1.9791-4.9528,8.6166-8.4405,14.75-3.4878,6.1334-6.8691,11.152-7.5141,11.152-0.64499,0-7.4664-3.6413-15.159-8.0918zm-272.22-30.75c-1.8937-5.5144-8.5865-32.268-8.2927-33.15,0.2023-0.60689,0.90585,0.89714,1.5635,3.3423,9.1552,34.042,6.7174,30.591,19.174,27.143,4.125-1.1417,16.05-4.3477,26.5-7.1244s21.25-5.7227,24-6.5466c4.7043-1.4095,31.368-8.5169,39.89-10.633,2.1397-0.53132,4.3897-0.79208,5-0.57947,0.61033,0.21262-0.91531,0.87285-3.3903,1.4672-2.475,0.59433-12.825,3.3217-23,6.0608s-27.725,7.4601-39,10.491c-11.275,3.031-24.1,6.5102-28.5,7.7318-11.26,3.1261-13.394,3.4011-13.945,1.7976zm124.32-13.62c-1.2439-1.5861-1.2085-1.6214,0.37756-0.37756,0.9625,0.75485,1.75,1.5424,1.75,1.75,0,0.82304-0.82119,0.29331-2.1276-1.3724zm-135.82-29.5c-1.1913-4.5375-2.8156-9.9466-3.6096-12.02-1.6673-4.3546-1.7198-4.7298-0.66188-4.7298,0.42993,0,1.3724,2.1375,2.0944,4.75,0.72199,2.6125,1.9135,6.775,2.6479,9.25,1.7492,5.8951,2.7539,11,2.165,11-0.25845,0-1.4446-3.7125-2.6359-8.25zm-65.903-19c0.13546-2.9382,0.18926-2.9918,0.56075-0.55883,0.33019,2.1625,1.0374,2.7695,3.6002,3.09,3.0656,0.38333,3.0439,0.40499-0.56075,0.55882-3.625,0.1547-3.745,0.0517-3.6002-3.09zm528.1,2.5215c2.0625-0.21574,3.75-0.8151,3.75-1.3319,0-0.51679,0.375-0.93963,0.83333-0.93963,0.45834,0,0.83334,0.675,0.83334,1.5,0,1.1396-1.1012,1.4596-4.5833,1.3319-4.3574-0.15982-4.3984-0.18744-0.83333-0.56037zm-143.25-6.7715c0.68469-0.825,1.4699-1.5,1.7449-1.5s-0.0602,0.675-0.74489,1.5-1.4699,1.5-1.7449,1.5,0.0602-0.675,0.74489-1.5zm-385-53.418,0-50.918-3.25-1.9987c-1.7875-1.0993-5.9502-3.4985-9.2504-5.3316s-9.0866-5.1329-12.859-7.3329c-3.772-2.2-21.322-12.351-39-22.559-24.885-14.369-32.212-19.045-32.456-20.713-0.18887-1.2929,2.6647-7.2668,7.137-14.941,4.0984-7.0329,10.689-18.411,14.646-25.285,7.9449-13.802,7.7917-13.575,8.6138-12.753,0.32028,0.32028-4.6941,9.7328-11.143,20.917-6.449,11.184-12.519,21.735-13.488,23.447-0.96958,1.7122-2.3644,4.0762-3.0996,5.2535-0.92246,1.4771-1.0291,2.6049-0.34404,3.639,0.83693,1.2634,45.495,27.491,84.743,49.769l10.75,6.102v51.812c0,28.497-0.225,51.812-0.5,51.812s-0.5-22.913-0.5-50.918zm406,32.865c0-0.275,3.15-3.6259,7-7.4464s7-6.7214,7-6.4464-3.15,3.6259-7,7.4464-7,6.7214-7,6.4464zm15-15.072c0-0.275,1.35-1.7934,3-3.3742s3-2.6492,3-2.3742-1.35,1.7934-3,3.3742-3,2.6492-3,2.3742zm8.0722-8.6242c0.0397-0.4125,1.7272-2.0759,3.75-3.6965l3.6778-2.9465-3.4462,3.6965c-3.5613,3.82-4.1044,4.2219-3.9816,2.9465zm-378.08-54-48.496-48.75,48.75,48.496c26.812,26.673,48.75,48.61,48.75,48.75,0,0.70302-3.9266-3.1829-49.004-48.496zm388.01,44.25c1.373-1.65,2.6089-3.1875,2.7464-3.4167,0.1375-0.22916,0.47031-0.19636,0.73957,0.0729s-0.9666,1.8068-2.7464,3.4167l-3.2359,2.9271,2.4964-3zm93.236,0.28052c0.41773-1.2532,4.7641-3.0808,4.7524-1.9983-0.004,0.39478-1.157,1.251-2.5617,1.9028-1.7503,0.81215-2.4396,0.8422-2.1907,0.0955zm6.7602-2.6388c0.825-0.48716,12.3-3.7025,25.5-7.1452s24.833-6.6903,25.85-7.2169c2.3886-1.236,2.4531-0.89652-6.2938-33.16-1.175-4.3342-1.9815-8.3453-1.7921-8.9134,0.46867-1.406,9.93,33.749,10.481,38.943l0.43998,4.1492-4.3427,1.0282c-10.598,2.5093-17.667,4.3234-21.843,5.6053-5.9185,1.817-22.695,6.2498-26.5,7.0023-1.9716,0.38983-2.4858,0.28953-1.5-0.29258zm-72-25.642c1.2918-1.375,2.5736-2.5,2.8486-2.5s-0.55688,1.125-1.8486,2.5c-1.2918,1.375-2.5736,2.5-2.8486,2.5s0.55688-1.125,1.8486-2.5zm113.09-36.5c-0.65154-2.475-1.6126-5.8046-2.1357-7.3992-1.2826-3.9096-1.1185-6.8164,0.20327-3.6008,1.7186,4.1812,3.9291,13.255,3.5108,14.412-0.21653,0.59854-0.92678-0.93674-1.5783-3.4117zm-6.0005-22.25c-2.9478-11.403-5.8938-22.264-7.7459-28.556-0.85897-2.9183-1.2976-5.5702-0.97462-5.8931,0.71917-0.71917,0.74987-0.62615,4.6856,14.199,1.7521,6.6,4.2021,15.712,5.4444,20.25,1.2423,4.5375,1.9132,8.25,1.491,8.25-0.42225,0-1.7275-3.7125-2.9005-8.25zm-219.98-4.3331c-7.2137-1.9398-16.283-7.5803-20.538-12.774-1.9065-2.3266-5.0597-7.5857-7.0071-11.687-2.8789-6.0628-3.6259-8.952-3.9965-15.457-0.25066-4.4-0.24905-6.875,0.004-5.5,0.25263,1.375,0.92939,5.2,1.5039,8.5,4.1442,23.804,25.778,40.171,48.435,36.644,13.437-2.0919,26.346-10.926,31.76-21.733,5.3612-10.702,6.2276-14.949,6.2045-30.411-0.034-22.702-3.3314-31.519-22.636-60.527-32.974-49.547-33.356-50.234-34.929-62.778-1.2908-10.294,0.47385-17.062,5.6294-21.589,4.6489-4.0818,10.84-4.3448,14.847-0.63074,3.6003,3.3366,6.6471,10.766,6.5034,15.857l-0.11803,4.1671-0.79404-4.5c-1.1726-6.645-3.5059-11.431-7.0109-14.38-3.7104-3.1221-6.3536-3.2867-10.656-0.66368-5.725,3.4908-6.8057,6.2751-6.7924,17.5,0.0108,9.1249,0.29324,10.639,3.0866,16.544,1.6911,3.575,10.279,17.307,19.084,30.516,27.568,41.353,29.896,45.537,33.376,59.984,2.2187,9.2098,2.6502,29.05,0.82012,37.701-2.7647,13.068-12.293,26.399-22.644,31.679-9.8045,5.0019-23.433,6.4142-34.133,3.537zm-200.1-44.273,0-42.91-5.431-21.367c-2.9871-11.752-7.6992-30.142-10.471-40.867-14.137-54.693-19.905-78.337-19.42-79.602,0.42499-1.1075,3.5292-1.3977,14.951-1.3977,13.998,0,14.442,0.065,15.371,2.25,0.52609,1.2375,3.0128,13.275,5.5261,26.75s5.4093,29,6.4356,34.5,3.0608,16.3,4.5212,24c3.4663,18.276,3.9,21.401,2.7066,19.5-0.51798-0.825-1.7086-5.775-2.6458-11-4.8014-26.767-17.585-93.259-18.086-94.069-0.61762-0.99933-26.731-1.3234-27.711-0.3439-0.32282,0.32282,0.0273,2.6853,0.77813,5.25,0.75079,2.5647,4.286,16.138,7.856,30.163,18.314,71.947,21.722,85.257,24.066,94,2.5446,9.4877,2.5479,9.5559,2.5504,52.75l0.003,43.25h14,14v-43.84c0-41.06,0.13078-44.342,2.0626-51.75,2.8924-11.092,8.7946-34.052,17.457-67.91,4.0809-15.95,9.2281-35.975,11.438-44.5,2.2101-8.525,4.0237-16.075,4.03-16.777,0.009-0.99011-3.1849-1.215-14.199-1l-14.212,0.27746-2.2736,12.5c-1.2505,6.875-2.9515,16.325-3.78,21-0.82854,4.675-3.9483,22-6.9328,38.5s-5.6272,31.125-5.8728,32.5c-0.34772,1.9471-0.47654,1.726-0.58247-1-0.0748-1.925,0.51872-6.9215,1.3189-11.103,0.80022-4.1819,2.3533-12.732,3.4512-19,4.3254-24.694,13.124-72.465,13.565-73.647,0.34444-0.92389,4.3875-1.25,15.497-1.25h15.031v2.5542c0,1.4048-2.054,10.517-4.5645,20.25-2.5105,9.7327-6.8153,26.471-9.5662,37.196s-8.4566,32.775-12.679,49l-7.6776,29.5-0.50623,45-0.50624,45-14.75,0.27673-14.75,0.27674v-42.91zm55.304,41.205c-0.3485-0.90818,0.37731-8.2207,1.6129-16.25s3.0832-20.224,4.1059-27.099c3.6165-24.314,10.884-71.36,16.991-110,1.6083-10.175,3.8765-24.8,5.0404-32.5s2.7528-17.771,3.531-22.381c0.77819-4.6095,1.4218-9.5595,1.4302-11,0.008-1.4405,0.49051-3.294,1.0713-4.119,1.2581-1.7871,0.88757,1.5861-2.6362,24-1.3402,8.525-2.8963,18.65-3.4579,22.5-2.1665,14.853-5.0259,33.237-5.988,38.5-0.55301,3.025-2.3533,14.5-4.0007,25.5-2.8027,18.715-6.1341,40.536-11.068,72.5-3.822,24.759-5.8893,38.492-5.9125,39.278-0.0126,0.42802,6.1645,0.65302,13.727,0.5l13.75-0.27822,1.1243-9c0.61834-4.95,1.6508-14.4,2.2943-21,0.64352-6.6,1.4173-14.138,1.7196-16.75l0.54955-4.75h15.217,15.217l2.1913,19.25c1.2052,10.588,2.4774,22.288,2.8271,26l0.63578,6.75h14.874,14.874l-0.5748-4.25c-0.31613-2.3375-0.82242-5.375-1.1251-6.75-0.30266-1.375-0.92505-5.425-1.3831-9-0.45803-3.575-1.5457-10.775-2.417-16-0.87133-5.225-2.9136-18.275-4.5385-29-1.6248-10.725-4.1166-26.925-5.5374-36-1.4207-9.075-3.4191-22.125-4.4408-29s-3.0272-19.925-4.4565-29c-4.6229-29.351-7.5717-48.409-8.1233-52.5-0.29662-2.2-0.99345-6.3503-1.5485-9.2229l-1.0092-5.2229-14.185-0.3068-14.185-0.3068,14.643-0.22026c12.371-0.18609,14.734,0.0176,15.231,1.3129,0.32357,0.84323,1.771,9.5057,3.2164,19.25s2.9874,19.967,3.4266,22.717c3.9338,24.632,11.994,76.608,15.043,97,1.1661,7.8007,10.465,67.74,12.041,77.616,1.8338,11.49,2.5608,10.984-15.316,10.66l-15.258-0.27616-1.2588-10.5c-0.69231-5.775-2.0485-17.475-3.0138-26l-1.755-15.5-13.42-0.28021c-7.3809-0.15411-13.772,0.0722-14.203,0.50292-0.43072,0.43072-1.9383,11.807-3.3502,25.28s-2.769,25.06-3.0157,25.747c-0.32999,0.91948-4.1671,1.25-14.511,1.25-12.15,0-14.149-0.22457-14.696-1.6512zm151.15-30.212c-6.1194-3.7317-8.4572-11.016-8.4572-26.353,0-13.035,1.4019-9.8751,2.0316,4.58,0.60859,13.97,2.1453,17.963,8.03,20.865,10.548,5.2021,19.45-7.8899,16.806-24.715-1.8388-11.699-4.4898-17.056-16.739-33.826-24.368-33.359-34.601-50.159-37.966-62.327-2.8188-10.195-3.6869-28.708-1.8292-39.011,1.7069-9.4667,6.3823-19.922,11.385-25.459,7.3262-8.1092,20.584-13.89,31.855-13.89,13.367,0,23.696,4.3268,32.308,13.533,11.113,11.88,13.518,20.766,13.187,48.717l-0.0683,5.75h-15.5c-8.525,0-15.501-0.3375-15.502-0.75-0.00082-0.4125,6.7492-0.61495,15-0.44989l15.002,0.30011v-12.922c0-11.116-0.35367-14.006-2.5302-20.674-3.2355-9.9116-6.3629-15.195-12.259-20.71-16.979-15.882-43.669-14.948-59.435,2.0815-5.9833,6.4627-9.9189,13.874-11.642,21.924-1.6689,7.7983-1.4297,29.775,0.41244,37.889,2.8319,12.474,14.486,32.113,36.383,61.312,16.088,21.453,21.241,34.417,19.478,49-1.6385,13.552-10.956,20.622-19.95,15.137zm-39.457-24.578c0-5.0394,0.41122-8.559,1-8.559,0.58271,0,1,3.3137,1,7.941,0,4.3675-0.45,8.2191-1,8.559-0.63692,0.39364-1-2.4896-1-7.941zm0.33333-11.015c0-0.80081,0.375-1.2242,0.83334-0.94098,0.45833,0.28326,0.83333,0.93847,0.83333,1.456,0,0.51754-0.375,0.94098-0.83333,0.94098-0.45834,0-0.83334-0.65521-0.83334-1.456zm-0.0845-3.794c0.30283-0.91105,4.5753-1.3251,15.756-1.527,14.036-0.25342,18.983,0.43039,16.082,2.2231-0.59791,0.36954-1.0871,0.19533-1.0871-0.38713,0-0.69667-4.9613-1.059-14.5-1.059-9,0-14.5,0.37931-14.5,1,0,0.55-0.4875,1-1.0833,1-0.59584,0-0.89636-0.5625-0.66783-1.25zm-390.75-0.75c-0.33992-0.55-0.14148-1,0.44098-1s1.059,0.45,1.059,1-0.19844,1-0.44098,1-0.7191-0.45-1.059-1zm-8.6276-8.75c-1.2439-1.5861-1.2085-1.6214,0.37756-0.37756,1.6658,1.3064,2.1955,2.1276,1.3724,2.1276-0.20765,0-0.99515-0.7875-1.75-1.75zm327.27-10,0.1419-4.75,0.6081,4,0.60809,4,8.6587,0c4.7623,0,8.1373,0.33061,7.5,0.73469s-4.8712,0.74158-9.4087,0.75l-8.25,0.0153,0.14191-4.75zm17.002-8.237c-0.72368-5.7678-1.7081-14.093-2.1877-18.5-0.47955-4.4072-1.7836-15.663-2.8979-25.013s-1.9784-18.35-1.9202-20c0.17502-4.9654,2.6951,11.77,4.8186,32,1.0969,10.45,2.4833,23.189,3.0808,28.309,0.5975,5.1197,0.93694,10.295,0.75431,11.5-0.18264,1.2053-0.92417-2.5277-1.6478-8.2955zm-16.028-0.22863c-0.0638-2.0436,0.51369-8.5686,1.2833-14.5,0.76962-5.9314,2.1395-17.084,3.0442-24.784s2.0569-16.925,2.5605-20.5l0.91556-6.5-0.40814,8.5c-0.3609,7.5163-5.9592,56.115-6.9117,60-0.20225,0.825-0.41993-0.17203-0.48373-2.2156zm358.38-48.784c-2.1482-2.2-3.6809-4-3.4059-4s2.2577,1.8,4.4059,4,3.6809,4,3.4059,4-2.2577-1.8-4.4059-4zm-8.5-9.4388c0-0.24134,3.983-7.3288,8.8512-15.75,4.8681-8.4212,11.393-19.715,14.5-25.097,3.1069-5.382,5.6488-10.339,5.6488-11.016,0-1.1751-4.5672-4.197-15.5-10.255-2.75-1.5239-9.95-5.672-16-9.218s-13.925-8.1331-17.5-10.194c-3.575-2.0605-15.05-8.6803-25.5-14.711-10.45-6.0304-19.788-11.255-20.75-11.611-0.98255-0.36311-1.736-1.6472-1.7182-2.9281,0.0276-1.9758,0.195-2.0739,1.25-0.73256,1.2048,1.5317,18.975,12.042,60.718,35.911,11.825,6.7617,23.085,13.3,25.022,14.531,1.9373,1.2302,5.4248,3.2072,7.75,4.3934,5.3576,2.7333,5.368,4.1846,0.0964,13.397-2.2722,3.9706-5.4847,9.6943-7.1388,12.719-1.6542,3.025-4.8964,8.65-7.2049,12.5-2.3086,3.85-5.7162,9.5875-7.5725,12.75-2.8453,4.8474-4.9525,7.1072-4.9525,5.3112zm-631.37-36.26c-0.53965-1.7804-4.4444-16.19-8.6646-31.976-1.1543-4.3174-2.9685-11.104-4.0317-15.081-1.0632-3.9774-1.933-7.7649-1.933-8.4167,0-3.1078,1.4585,1.2743,5.5846,16.779,8.3311,31.307,10.424,39.693,10.01,40.107-0.22679,0.22678-0.66132-0.40908-0.96563-1.413zm558.32-36.075-3.4462-3.75,3.75,3.4462c3.4904,3.2076,4.2098,4.0538,3.4462,4.0538-0.16711,0-1.8546-1.6875-3.75-3.75zm-283.95,2.309c0-0.24254,0.45-0.7191,1-1.059,0.55-0.33992,1-0.14148,1,0.44098s-0.45,1.059-1,1.059-1-0.19844-1-0.44098zm275.5-10.559c-1.5808-1.65-2.6492-3-2.3742-3s1.7934,1.35,3.3742,3,2.6492,3,2.3742,3-1.7934-1.35-3.3742-3zm-7.5538-7.75-3.4462-3.75,3.75,3.4462c3.4904,3.2076,4.2098,4.0538,3.4462,4.0538-0.16711,0-1.8546-1.6875-3.75-3.75zm-559.72-12.75c-3.4011-12.45-3.5917-16.162-0.25678-5,1.6433,5.5,2.8651,10.675,2.715,11.5-0.15006,0.825-1.2563-2.1-2.4582-6.5zm539.27-7.5c-8.2362-8.25-14.732-15-14.435-15,0.29712,0,7.0415,6.5401,14.987,14.534,16.497,16.595,15.413,15.466,14.851,15.466-0.23604,0-7.1679-6.75-15.404-15zm-543.92-10.1c-2.0032-5.9161-5.667-22.208-5.4028-24.024,0.26975-1.8543,1.4717-2.546,6.8274-3.9293,3.575-0.92337,11-2.8861,16.5-4.3616s15.175-4.0128,21.5-5.6384,12.336-3.4364,13.359-4.0241c1.3952-0.80198,1.7572-0.76374,1.4515,0.15332-0.38975,1.1693-12.284,4.6386-43.81,12.778-12.308,3.1778-14.545,4.0504-14.796,5.7722-0.16306,1.1156,1.0738,6.9083,2.7485,12.873,1.6748,5.9643,2.8312,11.058,2.57,11.319-0.26124,0.26124-0.68725-0.15193-0.94669-0.91815zm508.92-24.9c-10.439-10.45-18.755-19-18.48-19s9.0411,8.55,19.48,19,18.755,19,18.48,19-9.0411-8.55-19.48-19zm-395.5,17.964c0-0.275,4.725-5.2089,10.5-10.964,5.775-5.7554,10.5-10.239,10.5-9.9643,0,0.275-4.725,5.2089-10.5,10.964-5.775,5.7554-10.5,10.239-10.5,9.9643zm22.035-22.145c1.2442-1.8224,30.271-30.847,30.56-30.557,0.18332,0.18331-6.7222,7.2868-15.346,15.786-8.6234,8.4988-15.47,15.146-15.214,14.772zm-81.593-39.81c0-13.475,0.14155-18.988,0.31456-12.25,0.17301,6.7375,0.17301,17.762,0,24.5-0.17301,6.7375-0.31456,1.225-0.31456-12.25zm114.57,6.685c0-0.91063,10.163-10.855,10.623-10.395,0.18004,0.18004-2.1365,2.7606-5.1479,5.7346s-5.4753,5.0713-5.4753,4.6606zm16.564-16.978c0.37553-0.98622,0.93469-1.5412,1.2426-1.2333,0.30789,0.30789,0.00064,1.1148-0.68278,1.7931-0.98762,0.98026-1.1025,0.8654-0.5598-0.5598zm15.436-14.801c0-0.275,1.8-2.2577,4-4.4059s4-3.6809,4-3.4059-1.8,2.2577-4,4.4059-4,3.6809-4,3.4059zm-146.62-4.9059c0.11432-4.4132,0.18409-4.5039,3.6166-4.7018l3.5-0.20178-3.1904,0.96493c-2.7169,0.8217-3.2537,1.5196-3.6166,4.7018-0.36257,3.1793-0.40876,3.0654-0.30958-0.76315zm531.05-2.9397c-0.51333-0.49851-2.2833-1.0986-3.9333-1.3335-2.7483-0.39128-2.6904-0.43969,0.69098-0.57695,2.03-0.0824,3.9876,0.33011,4.3501,0.9167,0.87657,1.4183,0.0723,2.1398-1.1078,0.99375zm-420.43-1.3421c0.825-0.67001,2.5954-3.2432,3.9343-5.7182,1.3388-2.475,4.9718-8.775,8.0733-14s6.9955-11.975,8.6534-15,8.6365-15.175,15.508-27,14.459-24.988,16.861-29.25c2.4022-4.2625,4.6954-7.75,5.096-7.75s8.9736,4.7935,19.051,10.652c10.077,5.8588,21.795,12.627,26.039,15.04,4.2438,2.4134,7.9828,4.8199,8.309,5.3477,0.74319,1.2025-1.7902,1.2692-3.075,0.081-0.8579-0.79344-23.295-13.863-42.379-24.686l-7.4294-4.2133-9.1383,15.639c-5.0261,8.6014-13.797,23.739-19.491,33.639-5.6938,9.9-13.382,23.175-17.085,29.5-3.7031,6.325-7.564,13.176-8.5799,15.225-1.2146,2.45-2.5317,3.7229-3.847,3.7182-1.7266-0.006-1.795-0.17373-0.5-1.2254zm-78.319-0.46719c13.299-0.15744,35.349-0.15759,49-0.00034s2.7694,0.28606-24.181,0.28625c-26.95,0.00018-38.119-0.12847-24.819-0.28591zm435.89-9.001c-6.0395-21.338-7.5905-27.009-9.083-33.21-0.85518-3.5529-2.2253-8.7662-3.0448-11.585l-1.4899-5.1252-8.727,2.3739c-4.7999,1.3056-13.452,3.6709-19.227,5.2561s-15,4.0602-20.5,5.4998c-5.5,1.4397-11.35,2.9894-13,3.4437-29.145,8.0253-44.823,12.089-46.343,12.013-1.8297-0.0923,14.951-5.0116,35.843-10.507,23.647-6.2205,31.039-8.1848,51.966-13.809,11.257-3.0253,20.706-5.2607,20.999-4.9676,0.29306,0.29306,1.0351,2.6331,1.649,5.2002,3.181,13.302,13.006,49.288,14.448,52.917,0.49165,1.2375,0.5281,2.25,0.081,2.25-0.44709,0-2.0547-4.3875-3.5725-9.75zm18.12,9.0035c6.7055-0.17275,17.955-0.17325,25-0.001,7.0445,0.17214,1.5582,0.31348-12.192,0.31409s-19.514-0.14023-12.808-0.31298z"/>
 </g>
</svg>
